<?xml version="1.0" encoding="utf-8"?>
<!-- Generator: Adobe Illustrator 16.0.0, SVG Export Plug-In . SVG Version: 6.00 Build 0)  -->
<!DOCTYPE svg PUBLIC "-//W3C//DTD SVG 1.1//EN" "http://www.w3.org/Graphics/SVG/1.1/DTD/svg11.dtd">
<svg version="1.1" id="Layer_1" xmlns="http://www.w3.org/2000/svg" xmlns:xlink="http://www.w3.org/1999/xlink" x="0px" y="0px"
	 width="190.656px" height="161.043px" viewBox="0 0 190.656 161.043" enable-background="new 0 0 190.656 161.043"
	 xml:space="preserve">
<g>
	<g>
		<path fill="#2571B7" d="M24.098,142.828c1.283-1.869,1.926-4.057,1.926-6.559c-0.029-3.83-1.189-6.627-3.48-8.389
			c-2.273-1.747-5.209-2.62-8.811-2.62H0v35.781h9.264v-13.765h0.115l8.594,13.765H29.34l-10.887-14.67
			C20.932,145.833,22.814,144.65,24.098,142.828z M16.08,139.121c-0.373,0.604-0.877,1.063-1.512,1.371
			c-0.637,0.326-1.318,0.535-2.047,0.63c-0.76,0.125-1.543,0.185-2.35,0.185H9.264v-8.955h0.908c0.418,0,0.822,0,1.209,0
			c0.373,0,0.752,0.031,1.141,0.094c0.729,0.125,1.41,0.349,2.047,0.675c0.635,0.276,1.139,0.721,1.512,1.325
			c0.387,0.604,0.58,1.402,0.58,2.396C16.66,137.787,16.467,138.547,16.08,139.121z"/>
		<polygon fill="#2571B7" points="32.189,161.043 52.176,161.043 52.176,153.166 41.453,153.166 41.453,147 51.617,147 
			51.617,139.123 41.453,139.123 41.453,133.139 52.176,133.139 52.176,125.262 32.189,125.262 		"/>
		<polygon fill="#2571B7" points="83.938,147.146 83.85,147.146 67.596,125.262 58.33,125.262 58.33,161.043 67.596,161.043 
			67.596,139.113 67.707,139.113 83.938,161.043 93.203,161.043 93.203,125.262 83.938,125.262 		"/>
		<path fill="#2571B7" d="M112.711,125.262H99.889v35.781h12.822c4.988-0.063,9.158-1.8,12.508-5.215
			c3.396-3.292,5.123-7.516,5.186-12.676c-0.062-5.161-1.788-9.418-5.186-12.771C121.869,127.03,117.699,125.324,112.711,125.262z
			 M118.133,150.754c-1.881,1.639-4.201,2.443-6.955,2.412h-2.025v-20.027h2.113c2.902,0.031,5.252,0.883,7.047,2.551
			c1.791,1.716,2.703,4.203,2.734,7.465C120.986,146.6,120.018,149.131,118.133,150.754z"/>
		<polygon fill="#2571B7" points="135.172,161.043 155.158,161.043 155.158,153.166 144.436,153.166 144.436,147 154.598,147 
			154.598,139.123 144.436,139.123 144.436,133.139 155.158,133.139 155.158,125.262 135.172,125.262 		"/>
		<path fill="#2571B7" d="M185.41,142.828c1.285-1.869,1.926-4.057,1.926-6.559c-0.031-3.83-1.189-6.627-3.479-8.389
			c-2.273-1.747-5.213-2.62-8.812-2.62h-13.733v35.781h9.266v-13.765h0.113l8.596,13.765h11.367l-10.887-14.67
			C182.244,145.833,184.125,144.65,185.41,142.828z M177.393,139.121c-0.371,0.604-0.875,1.063-1.512,1.371
			c-0.637,0.326-1.318,0.535-2.045,0.63c-0.762,0.125-1.545,0.185-2.35,0.185h-0.908v-8.955h0.908c0.418,0,0.82,0,1.209,0
			c0.371,0,0.752,0.031,1.141,0.094c0.727,0.125,1.408,0.349,2.045,0.675c0.637,0.276,1.141,0.721,1.512,1.325
			c0.39,0.604,0.582,1.402,0.582,2.396C177.975,137.787,177.781,138.547,177.393,139.121z"/>
		<path fill="#2571B7" d="M65.707,98.688c5.768-6.799,8.691-15.147,8.771-25.05c-0.08-9.943-3.004-18.293-8.771-25.049
			c-5.807-6.883-13.488-10.412-23.043-10.58c-3.631,0-7.18,0.68-10.646,2.039c-3.469,1.4-6.492,3.633-9.072,6.693V1.807H0.498
			v105.357h22.447v-7.453h0.242c2.258,3.227,5.082,5.629,8.469,7.199c3.387,1.656,6.975,2.484,10.766,2.484
			C52.059,109.225,59.822,105.656,65.707,98.688z M29.021,84.359c-2.549-2.801-3.824-6.32-3.824-10.563
			c0-4.285,1.275-7.848,3.824-10.689c2.51-2.885,6.092-4.369,10.748-4.455c4.615,0.086,8.217,1.57,10.807,4.455
			c2.471,2.842,3.705,6.404,3.705,10.689c0,4.242-1.234,7.762-3.705,10.563c-2.59,2.928-6.191,4.391-10.807,4.391
			C35.113,88.75,31.531,87.287,29.021,84.359z"/>
		<rect x="83.854" y="43.174" fill="#2571B7" width="22.447" height="63.99"/>
		<path fill="#2571B7" d="M154.766,37.406c-4.072,0-7.983,0.688-11.633,1.938l0.031-0.028
			c-19.125,6.125-30.479-10.082-33.984-27.016c-0.01-0.045-0.029-0.075-0.039-0.117C108.275,5.315,102.43,0,95.326,0
			c-7.697,0-13.938,6.238-13.938,13.936c0,6.835,4.924,12.51,11.415,13.698c0.062,0.017,0.107,0.043,0.173,0.058
			c10.721,2.443,34.342,15.455,29.418,30.088c-2.256,4.697-3.521,9.959-3.521,15.518c0,19.822,16.067,35.892,35.892,35.892
			c19.819,0,35.891-16.068,35.891-35.892C190.656,53.477,174.586,37.406,154.766,37.406z M154.256,88.23
			c-7.871,0-14.254-6.383-14.254-14.254c0-7.871,6.383-14.254,14.254-14.254c7.873,0,14.256,6.383,14.256,14.254
			C168.512,81.848,162.129,88.23,154.256,88.23z"/>
	</g>
</g>
</svg>
